<?xml version="1.0" encoding="UTF-8" standalone="no"?>
<svg
   xmlns:dc="http://purl.org/dc/elements/1.1/"
   xmlns:cc="http://creativecommons.org/ns#"
   xmlns:rdf="http://www.w3.org/1999/02/22-rdf-syntax-ns#"
   xmlns:svg="http://www.w3.org/2000/svg"
   xmlns="http://www.w3.org/2000/svg"
   viewBox="0 0 1333.3333 1333.3333"
   height="1333.3333"
   width="1333.3333"
   xml:space="preserve"
   id="svg2"
   version="1.1"><metadata
     id="metadata8"><rdf:RDF><cc:Work
         rdf:about=""><dc:format>image/svg+xml</dc:format><dc:type
           rdf:resource="http://purl.org/dc/dcmitype/StillImage" /></cc:Work></rdf:RDF></metadata><defs
     id="defs6"><clipPath
       id="clipPath18"
       clipPathUnits="userSpaceOnUse"><path
         id="path16"
         d="M 0,1000 H 1000 V 0 H 0 Z" /></clipPath><clipPath
       id="clipPath54"
       clipPathUnits="userSpaceOnUse"><path
         id="path52"
         d="M 0,1000 H 1000 V 0 H 0 Z" /></clipPath><clipPath
       id="clipPath106"
       clipPathUnits="userSpaceOnUse"><path
         id="path104"
         d="M 0,1000 H 1000 V 0 H 0 Z" /></clipPath><clipPath
       id="clipPath188"
       clipPathUnits="userSpaceOnUse"><path
         id="path186"
         d="M 0,1000 H 1000 V 0 H 0 Z" /></clipPath></defs><g
     transform="matrix(1.3333333,0,0,-1.3333333,0,1333.3333)"
     id="g10"><g
       id="g12"><g
         clip-path="url(#clipPath18)"
         id="g14"><g
           transform="translate(590.46,450.3604)"
           id="g20"><path
             id="path22"
             style="fill:#f3bf37;fill-opacity:1;fill-rule:nonzero;stroke:none"
             d="m 0,0 c -6.56,-5.41 -13.13,-10.761 -19.729,-16.07 -0.771,-0.62 -1.541,-1.241 -2.301,-1.861 -0.24,-0.199 -0.48,-0.399 -0.72,-0.58 -35.55,-29.46 -46.93,-62.55 -23.96,-120.929 14.71,-37.39 -12.79,-45.241 -23.61,-34.42 -12.3,12.299 -7.21,45.299 -5.9,59.009 1.97,20.661 -13.77,26.561 -24.59,26.561 -12.42,0 -31.68,-13.34 -35.66,-16.181 l 0.73,0.561 c -3.96,-2.811 -7.91,-5.62 -11.87,-8.401 -25.36,26.701 -49.95,54.42 -73.75,83.161 l -151.12,-120.21 c -11.64,16.509 -21.72,33.929 -30.16,52.089 L -258.51,17.38 c -24.14,31.36 -46.98,63.309 -68.46,95.84 17.09,15.36 34.48,30.54 52.12,45.48 27.23,-40.48 56.49,-80.4 87.08,-118.86 3.75,-4.71 7.52,-9.41 11.32,-14.09 15.7,-16.931 31.06,-34.641 50.48,-47.44 5.81,-3.821 12.07,-7.22 18.93,-8.39 2.38,-0.41 5.14,-0.42 6.81,1.33 1.53,1.59 1.56,4.08 1.19,6.25 -0.65,3.92 -2.25,7.609 -4.02,11.159 -6.62,13.341 -15.33,25.601 -24.33,37.481 -10.38,12.349 -20.58,24.83 -30.58,37.41 -30.8,38.72 -60.2,78.92 -87.48,119.69 20.01,16.46 40.39,32.67 61.11,48.57 27.36,-40.74 56.79,-80.911 87.55,-119.59 C -66.11,73.64 -33.59,35.909 0,0" /></g><g
           transform="translate(499.688,750.6533)"
           id="g24"><path
             id="path26"
             style="fill:#f3bf37;fill-opacity:1;fill-rule:nonzero;stroke:none"
             d="m 0,0 c 26.651,-39.381 55.159,-78.228 84.971,-115.708 29.726,-37.371 61.158,-73.927 93.605,-108.843 -19.149,-17.333 -38.655,-34.442 -58.515,-51.29 -33.432,35.654 -65.769,73.12 -96.271,111.467 -30.59,38.458 -59.821,78.395 -86.929,118.898 C -42.255,-29.915 -21.213,-14.736 0,0" /></g><g
           transform="translate(661.1318,695.7715)"
           id="g28"><path
             id="path30"
             style="fill:#f3bf37;fill-opacity:1;fill-rule:nonzero;stroke:none"
             d="m 0,0 c 28.595,-35.95 55.421,-72.728 80.487,-110.254 -11.638,-11.286 -23.409,-22.497 -35.291,-33.614 -31.859,34.223 -62.687,70.064 -91.865,106.747 -29.249,36.771 -57.253,74.894 -83.361,113.548 13.506,9.075 27.077,18.023 40.71,26.802 C -58.396,70.363 -28.596,35.95 0,0" /></g><g
           transform="translate(737.9502,255.7998)"
           id="g32"><path
             id="path34"
             style="fill:#88898a;fill-opacity:1;fill-rule:nonzero;stroke:none"
             d="m 0,0 c -64.36,-64.359 -149.931,-99.8 -240.95,-99.8 -91.02,0 -176.59,35.441 -240.95,99.8 -14.1,14.101 -26.82,29.22 -38.07,45.2 -11.64,16.51 -21.72,33.93 -30.16,52.09 -20.68,44.42 -31.57,93.2 -31.57,143.66 0,91.02 35.44,176.59 99.8,240.95 64.36,64.36 149.93,99.8 240.95,99.8 91.019,0 176.59,-35.44 240.95,-99.8 C 64.359,417.54 99.8,331.97 99.8,240.95 99.8,149.931 64.359,64.36 0,0 m 101.58,385.66 c -18.73,44.27 -45.53,84.02 -79.66,118.16 -34.14,34.13 -73.89,60.94 -118.16,79.66 -45.84,19.39 -94.531,29.22 -144.71,29.22 -50.18,0 -98.87,-9.83 -144.71,-29.22 -44.27,-18.72 -84.02,-45.53 -118.16,-79.66 -34.13,-34.14 -60.94,-73.89 -79.66,-118.16 -19.39,-45.84 -29.22,-94.53 -29.22,-144.71 0,-50.179 9.83,-98.87 29.22,-144.71 2.67,-6.32 5.51,-12.559 8.52,-18.69 8.84,-18.08 19.09,-35.32 30.71,-51.659 12.04,-16.951 25.53,-32.911 40.43,-47.811 34.14,-34.13 73.89,-60.93 118.16,-79.66 45.84,-19.39 94.53,-29.22 144.71,-29.22 50.179,0 98.87,9.83 144.71,29.22 44.27,18.73 84.02,45.53 118.16,79.66 34.13,34.14 60.93,73.89 79.66,118.16 19.39,45.84 29.22,94.531 29.22,144.71 0,50.18 -9.83,98.87 -29.22,144.71" /></g><g
           transform="translate(129.2588,235.8848)"
           id="g36"><path
             id="path38"
             style="fill:#cfa23d;fill-opacity:1;fill-rule:nonzero;stroke:none"
             d="m 0,0 c -30.22,19.23 -85.164,21.978 -85.164,21.978 l 32.967,-52.198 -32.967,-38.461 c 0,0 63.186,-10.989 90.658,-24.724 27.473,-13.737 71.428,-24.726 90.659,-24.726 2.747,13.736 8.242,35.714 8.242,35.714 z" /></g><g
           transform="translate(871.0098,235.8848)"
           id="g40"><path
             id="path42"
             style="fill:#cfa23d;fill-opacity:1;fill-rule:nonzero;stroke:none"
             d="M 0,0 C 30.22,19.23 85.164,21.978 85.164,21.978 L 52.197,-30.22 85.164,-68.681 c 0,0 -63.185,-10.989 -90.658,-24.724 -27.473,-13.737 -71.428,-24.726 -90.658,-24.726 -2.747,13.736 -8.243,35.714 -8.243,35.714 z" /></g><g
           transform="translate(881.999,301.9004)"
           id="g44"><path
             id="path46"
             style="fill:#f3bf37;fill-opacity:1;fill-rule:nonzero;stroke:none"
             d="m 0,0 v -135.108 c -122.993,-27.913 -250.986,-42.637 -382.414,-42.637 -132.993,0 -262.47,15.082 -386.81,43.626 V 0.935 c 124.312,-28.517 253.734,-43.599 386.673,-43.599 131.482,0 259.53,14.753 382.551,42.664" /></g></g></g><g
       id="g48"><g
         clip-path="url(#clipPath54)"
         id="g50"><g
           transform="translate(264.5942,181.3574)"
           id="g56"><path
             id="path58"
             style="fill:#ffffff;fill-opacity:1;fill-rule:nonzero;stroke:none"
             d="m 0,0 c -4.945,0.755 -9.888,1.533 -14.829,2.336 v 28.623 c -4.455,-4.801 -8.908,-9.582 -13.358,-14.345 -0.39,0.067 -0.78,0.134 -1.169,0.201 -4.462,6.293 -8.922,12.606 -13.379,18.938 V 7.13 c -4.786,0.867 -9.571,1.757 -14.351,2.669 v 49.403 c 4.462,-0.851 8.928,-1.682 13.397,-2.495 5.022,-7.091 10.047,-14.158 15.076,-21.199 5.053,5.31 10.109,10.646 15.167,16.008 4.48,-0.724 8.962,-1.428 13.446,-2.114 z" /></g><g
           transform="translate(308.4971,193.8955)"
           id="g60"><path
             id="path62"
             style="fill:#ffffff;fill-opacity:1;fill-rule:nonzero;stroke:none"
             d="M 0,0 C -2.409,6.31 -4.817,12.626 -7.225,18.947 -9.656,13.248 -12.087,7.554 -14.518,1.866 -9.681,1.222 -4.841,0.599 0,0 m 22.692,-21.249 c -5.086,0.555 -10.169,1.135 -15.25,1.738 -1.341,3.498 -2.683,6.998 -4.024,10.5 -7.145,0.869 -14.286,1.787 -21.421,2.755 -1.363,-3.153 -2.726,-6.306 -4.089,-9.456 -5.072,0.701 -10.141,1.428 -15.207,2.18 7.256,15.391 14.518,30.834 21.785,46.328 5.477,-0.733 10.957,-1.439 16.44,-2.113 7.251,-17.362 14.506,-34.672 21.766,-51.932" /></g><g
           transform="translate(375.3281,168.4658)"
           id="g64"><path
             id="path66"
             style="fill:#ffffff;fill-opacity:1;fill-rule:nonzero;stroke:none"
             d="m 0,0 c -12.537,1.009 -25.064,2.168 -37.58,3.479 v 49.404 c 4.969,-0.521 9.939,-1.017 14.911,-1.49 V 13.823 C -15.117,13.105 -7.56,12.442 0,11.834 Z" /></g><g
           transform="translate(421.6538,165.4287)"
           id="g68"><path
             id="path70"
             style="fill:#ffffff;fill-opacity:1;fill-rule:nonzero;stroke:none"
             d="m 0,0 c -12.555,0.636 -25.104,1.424 -37.645,2.362 v 49.404 c 4.978,-0.372 9.958,-0.722 14.938,-1.046 V 13.149 C -15.14,12.656 -7.571,12.218 0,11.834 Z" /></g><g
           transform="translate(467.7456,163.7725)"
           id="g72"><path
             id="path74"
             style="fill:#ffffff;fill-opacity:1;fill-rule:nonzero;stroke:none"
             d="m 0,0 c -12.47,0.265 -24.937,0.678 -37.399,1.239 v 49.404 c 12.259,-0.553 24.524,-0.962 36.79,-1.227 v -9.909 c -7.279,0.157 -14.557,0.365 -21.833,0.624 V 31.077 C -15.5,30.83 -8.556,30.63 -1.611,30.476 v -9.945 c -6.945,0.155 -13.889,0.355 -20.831,0.602 V 10.582 C -14.963,10.315 -7.482,10.104 0,9.945 Z" /></g><g
           transform="translate(525.3516,201.002)"
           id="g76"><path
             id="path78"
             style="fill:#ffffff;fill-opacity:1;fill-rule:nonzero;stroke:none"
             d="m 0,0 c -6.062,-0.095 -12.125,-0.153 -18.188,-0.178 v -37.39 c -4.977,-0.02 -9.954,-0.016 -14.93,0.011 v 37.391 c -6.063,0.033 -12.126,0.103 -18.188,0.206 V 12.053 C -34.205,11.76 -17.102,11.746 0,12.013 Z" /></g><g
           transform="translate(580.6074,202.8408)"
           id="g80"><path
             id="path82"
             style="fill:#ffffff;fill-opacity:1;fill-rule:nonzero;stroke:none"
             d="m 0,0 c -6.058,-0.309 -12.115,-0.582 -18.175,-0.82 v -37.391 c -4.973,-0.195 -9.948,-0.367 -14.924,-0.516 v 37.391 c -6.06,-0.181 -12.122,-0.325 -18.184,-0.435 v 12.012 c 17.1,0.311 34.197,0.901 51.283,1.772 z" /></g><g
           transform="translate(641.2852,184.3398)"
           id="g84"><path
             id="path86"
             style="fill:#ffffff;fill-opacity:1;fill-rule:nonzero;stroke:none"
             d="m 0,0 c 0,4.231 -3.068,6.062 -9.211,5.543 -2.023,-0.17 -4.047,-0.336 -6.071,-0.498 V -7.609 c 2.024,0.162 4.048,0.328 6.071,0.498 C -3.068,-6.594 0,-4.204 0,0 m -2.427,20.351 c 0,2.375 -0.785,3.885 -2.356,4.533 -1.571,0.648 -4.024,0.828 -7.356,0.554 -1.048,-0.086 -2.095,-0.17 -3.143,-0.254 V 13.35 c 1.071,0.085 2.143,0.171 3.215,0.26 3.403,0.281 5.861,0.885 7.373,1.8 1.511,0.916 2.267,2.564 2.267,4.941 M 14.987,0.814 c 0,-4.252 -1.457,-7.797 -4.37,-10.622 -2.913,-2.826 -6.988,-4.485 -12.222,-4.95 -9.532,-0.848 -19.069,-1.608 -28.611,-2.281 v 49.402 c 7.982,0.564 15.959,1.188 23.933,1.873 3.095,0.266 5.789,0.208 8.086,-0.175 2.296,-0.385 4.146,-1.025 5.55,-1.926 1.403,-0.901 2.449,-2.018 3.139,-3.353 0.69,-1.336 1.035,-2.835 1.035,-4.498 0,-1.805 -0.357,-3.509 -1.071,-5.111 C 9.742,17.571 8.857,16.227 7.799,15.14 6.739,14.052 5.676,13.257 4.604,12.754 7.983,11.736 10.558,10.307 12.33,8.447 14.102,6.59 14.987,4.047 14.987,0.814" /></g><g
           transform="translate(703.0498,176.5225)"
           id="g88"><path
             id="path90"
             style="fill:#ffffff;fill-opacity:1;fill-rule:nonzero;stroke:none"
             d="m 0,0 c -12.394,-1.613 -24.801,-3.078 -37.22,-4.393 v 49.404 c 12.218,1.294 24.423,2.731 36.616,4.314 v -9.909 c -7.235,-0.939 -14.474,-1.827 -21.718,-2.665 v -9.054 c 6.911,0.799 13.818,1.645 20.721,2.536 v -9.945 c -6.903,-0.891 -13.81,-1.736 -20.721,-2.535 V 7.202 C -14.877,8.063 -7.436,8.978 0,9.945 Z" /></g><g
           transform="translate(750.1152,183.3779)"
           id="g92"><path
             id="path94"
             style="fill:#ffffff;fill-opacity:1;fill-rule:nonzero;stroke:none"
             d="m 0,0 c -12.352,-1.991 -24.722,-3.833 -37.107,-5.526 v 49.403 c 12.183,1.665 24.352,3.476 36.504,5.43 v -9.91 c -7.21,-1.16 -14.426,-2.268 -21.648,-3.326 v -9.053 c 6.89,1.008 13.775,2.064 20.655,3.166 v -9.945 c -6.88,-1.101 -13.765,-2.157 -20.655,-3.166 V 6.522 C -14.828,7.609 -7.411,8.751 0,9.945 Z" /></g><g
           transform="translate(794.3242,205.5215)"
           id="g96"><path
             id="path98"
             style="fill:#ffffff;fill-opacity:1;fill-rule:nonzero;stroke:none"
             d="m 0,0 c 0,-3.09 -0.784,-5.913 -2.351,-8.467 -1.565,-2.554 -3.751,-4.694 -6.555,-6.412 -2.805,-1.718 -6.024,-2.905 -9.656,-3.553 -1.015,-0.181 -2.26,-0.336 -3.734,-0.464 -1.475,-0.129 -3.433,-0.11 -5.878,0.064 -2.443,0.175 -4.988,0.621 -7.633,1.346 v 12.119 c 2.48,-1.131 4.918,-2.002 7.315,-2.612 2.396,-0.611 4.962,-0.675 7.701,-0.192 2.523,0.447 4.157,1.163 4.9,2.141 0.743,0.977 1.114,1.834 1.114,2.572 0,1.33 -0.636,2.337 -1.91,3.023 -1.273,0.686 -3.125,1.298 -5.556,1.846 -2.691,0.668 -5.05,1.502 -7.081,2.497 -2.031,0.995 -3.691,2.396 -4.977,4.201 -1.288,1.803 -1.931,4.084 -1.931,6.841 0,2.661 0.648,5.175 1.948,7.544 1.299,2.368 3.283,4.421 5.951,6.162 2.668,1.74 5.925,2.948 9.771,3.634 2.736,0.487 5.264,0.679 7.587,0.57 2.321,-0.109 4.237,-0.352 5.746,-0.735 1.506,-0.384 2.543,-0.71 3.109,-0.983 V 19.558 c -2.003,1.069 -4.235,1.946 -6.697,2.631 -2.464,0.686 -5.099,0.775 -7.906,0.272 -1.839,-0.331 -3.173,-0.923 -3.999,-1.782 -0.826,-0.86 -1.238,-1.812 -1.238,-2.857 0,-0.973 0.413,-1.745 1.238,-2.312 0.826,-0.567 2.301,-1.173 4.424,-1.813 3.774,-1.103 6.791,-2.151 9.053,-3.157 C -4.982,9.534 -3.21,8.224 -1.926,6.602 -0.643,4.979 0,2.779 0,0" /></g></g></g><g
       id="g100"><g
         clip-path="url(#clipPath106)"
         id="g102"><g
           transform="translate(593.46,450.3604)"
           id="g108"><path
             id="path110"
             style="fill:#f3bf37;fill-opacity:1;fill-rule:nonzero;stroke:none"
             d="m 0,0 c -6.56,-5.41 -13.13,-10.761 -19.729,-16.07 -0.771,-0.62 -1.541,-1.241 -2.301,-1.861 -0.24,-0.199 -0.48,-0.399 -0.72,-0.58 -35.55,-29.46 -46.93,-62.55 -23.96,-120.929 14.71,-37.39 -12.79,-45.241 -23.61,-34.42 -12.3,12.299 -7.21,45.299 -5.9,59.009 1.97,20.661 -13.77,26.561 -24.59,26.561 -12.42,0 -31.68,-13.34 -35.66,-16.181 l 0.73,0.561 c -3.96,-2.811 -7.91,-5.62 -11.87,-8.401 -25.36,26.701 -49.95,54.42 -73.75,83.161 l -151.12,-120.21 c -11.64,16.509 -21.72,33.929 -30.16,52.089 L -258.51,17.38 c -24.14,31.36 -46.98,63.309 -68.46,95.84 17.09,15.36 34.48,30.54 52.12,45.48 27.23,-40.48 56.49,-80.4 87.08,-118.86 3.75,-4.71 7.52,-9.41 11.32,-14.09 15.7,-16.931 31.06,-34.641 50.48,-47.44 5.81,-3.821 12.07,-7.22 18.93,-8.39 2.38,-0.41 5.14,-0.42 6.81,1.33 1.53,1.59 1.56,4.08 1.19,6.25 -0.65,3.92 -2.25,7.609 -4.02,11.159 -6.62,13.341 -15.33,25.601 -24.33,37.481 -10.38,12.349 -20.58,24.83 -30.58,37.41 -30.8,38.72 -60.2,78.92 -87.48,119.69 20.01,16.46 40.39,32.67 61.11,48.57 27.36,-40.74 56.79,-80.911 87.55,-119.59 C -66.11,73.64 -33.59,35.909 0,0" /></g><g
           transform="translate(502.6875,750.6533)"
           id="g112"><path
             id="path114"
             style="fill:#f3bf37;fill-opacity:1;fill-rule:nonzero;stroke:none"
             d="m 0,0 c 26.651,-39.381 55.159,-78.228 84.972,-115.708 29.725,-37.371 61.158,-73.927 93.604,-108.843 -19.148,-17.333 -38.654,-34.442 -58.514,-51.29 -33.432,35.654 -65.77,73.12 -96.272,111.467 -30.59,38.458 -59.821,78.395 -86.929,118.898 C -42.255,-29.915 -21.213,-14.736 0,0" /></g><g
           transform="translate(664.1318,695.7715)"
           id="g116"><path
             id="path118"
             style="fill:#f3bf37;fill-opacity:1;fill-rule:nonzero;stroke:none"
             d="m 0,0 c 28.595,-35.95 55.421,-72.728 80.487,-110.254 -11.638,-11.286 -23.409,-22.497 -35.291,-33.614 -31.859,34.223 -62.687,70.064 -91.865,106.747 -29.249,36.771 -57.253,74.894 -83.361,113.548 13.506,9.075 27.077,18.023 40.71,26.802 C -58.396,70.363 -28.596,35.95 0,0" /></g><g
           transform="translate(740.9502,255.7998)"
           id="g120"><path
             id="path122"
             style="fill:#88898a;fill-opacity:1;fill-rule:nonzero;stroke:none"
             d="m 0,0 c -64.36,-64.359 -149.931,-99.8 -240.95,-99.8 -91.02,0 -176.59,35.441 -240.95,99.8 -14.1,14.101 -26.82,29.22 -38.07,45.2 -11.64,16.51 -21.72,33.93 -30.16,52.09 -20.68,44.42 -31.57,93.2 -31.57,143.66 0,91.02 35.44,176.59 99.8,240.95 64.36,64.36 149.93,99.8 240.95,99.8 91.019,0 176.59,-35.44 240.95,-99.8 C 64.359,417.54 99.8,331.97 99.8,240.95 99.8,149.931 64.359,64.36 0,0 m 101.58,385.66 c -18.73,44.27 -45.53,84.02 -79.66,118.16 -34.14,34.13 -73.89,60.94 -118.16,79.66 -45.84,19.39 -94.531,29.22 -144.71,29.22 -50.18,0 -98.87,-9.83 -144.71,-29.22 -44.27,-18.72 -84.02,-45.53 -118.16,-79.66 -34.13,-34.14 -60.94,-73.89 -79.66,-118.16 -19.39,-45.84 -29.22,-94.53 -29.22,-144.71 0,-50.179 9.83,-98.87 29.22,-144.71 2.67,-6.32 5.51,-12.559 8.52,-18.69 8.84,-18.08 19.09,-35.32 30.71,-51.659 12.04,-16.951 25.53,-32.911 40.43,-47.811 34.14,-34.13 73.89,-60.93 118.16,-79.66 45.84,-19.39 94.53,-29.22 144.71,-29.22 50.179,0 98.87,9.83 144.71,29.22 44.27,18.73 84.02,45.53 118.16,79.66 34.13,34.14 60.93,73.89 79.66,118.16 19.39,45.84 29.22,94.531 29.22,144.71 0,50.18 -9.83,98.87 -29.22,144.71" /></g><g
           transform="translate(129.124,235.8848)"
           id="g124"><path
             id="path126"
             style="fill:#cfa23d;fill-opacity:1;fill-rule:nonzero;stroke:none"
             d="m 0,0 c -30.219,19.23 -85.164,21.978 -85.164,21.978 l 32.967,-52.198 -32.967,-38.461 c 0,0 63.186,-10.989 90.659,-24.724 27.472,-13.737 71.428,-24.726 90.658,-24.726 2.747,13.736 8.242,35.714 8.242,35.714 z" /></g><g
           transform="translate(870.876,235.8848)"
           id="g128"><path
             id="path130"
             style="fill:#cfa23d;fill-opacity:1;fill-rule:nonzero;stroke:none"
             d="M 0,0 C 30.22,19.23 85.164,21.978 85.164,21.978 L 52.197,-30.22 85.164,-68.681 c 0,0 -63.186,-10.989 -90.659,-24.724 -27.472,-13.737 -71.428,-24.726 -90.658,-24.726 -2.747,13.736 -8.242,35.714 -8.242,35.714 z" /></g><g
           transform="translate(881.8643,301.9004)"
           id="g132"><path
             id="path134"
             style="fill:#f3bf37;fill-opacity:1;fill-rule:nonzero;stroke:none"
             d="m 0,0 v -135.108 c -122.993,-27.913 -250.986,-42.637 -382.414,-42.637 -132.993,0 -262.47,15.082 -386.809,43.626 V 0.935 c 124.312,-28.517 253.734,-43.599 386.672,-43.599 131.483,0 259.53,14.753 382.551,42.664" /></g><g
           transform="translate(263.6782,181.3574)"
           id="g136"><path
             id="path138"
             style="fill:#ffffff;fill-opacity:1;fill-rule:nonzero;stroke:none"
             d="m 0,0 c -4.945,0.755 -9.888,1.533 -14.829,2.336 v 28.623 c -4.455,-4.801 -8.908,-9.582 -13.358,-14.345 -0.39,0.067 -0.78,0.134 -1.169,0.201 -4.462,6.293 -8.922,12.606 -13.379,18.938 V 7.13 c -4.786,0.867 -9.571,1.757 -14.351,2.669 v 49.403 c 4.462,-0.851 8.928,-1.682 13.397,-2.495 5.022,-7.091 10.047,-14.158 15.076,-21.199 5.053,5.31 10.109,10.646 15.167,16.008 4.48,-0.724 8.962,-1.428 13.446,-2.114 z" /></g><g
           transform="translate(307.5811,193.8955)"
           id="g140"><path
             id="path142"
             style="fill:#ffffff;fill-opacity:1;fill-rule:nonzero;stroke:none"
             d="M 0,0 C -2.409,6.31 -4.817,12.626 -7.225,18.947 -9.657,13.248 -12.087,7.554 -14.518,1.866 -9.681,1.222 -4.841,0.599 0,0 m 22.692,-21.249 c -5.086,0.555 -10.169,1.135 -15.25,1.738 -1.341,3.498 -2.683,6.998 -4.024,10.5 -7.145,0.869 -14.286,1.787 -21.421,2.755 -1.363,-3.153 -2.726,-6.306 -4.089,-9.456 -5.072,0.701 -10.141,1.428 -15.207,2.18 7.256,15.391 14.518,30.834 21.785,46.328 5.477,-0.733 10.957,-1.439 16.44,-2.113 7.25,-17.362 14.506,-34.672 21.766,-51.932" /></g><g
           transform="translate(374.4121,168.4658)"
           id="g144"><path
             id="path146"
             style="fill:#ffffff;fill-opacity:1;fill-rule:nonzero;stroke:none"
             d="m 0,0 c -12.537,1.009 -25.064,2.168 -37.58,3.479 v 49.404 c 4.969,-0.521 9.939,-1.017 14.911,-1.49 V 13.823 C -15.117,13.105 -7.56,12.442 0,11.834 Z" /></g><g
           transform="translate(420.7378,165.4287)"
           id="g148"><path
             id="path150"
             style="fill:#ffffff;fill-opacity:1;fill-rule:nonzero;stroke:none"
             d="m 0,0 c -12.555,0.636 -25.104,1.424 -37.645,2.362 v 49.404 c 4.978,-0.372 9.958,-0.722 14.938,-1.046 V 13.149 C -15.14,12.656 -7.571,12.218 0,11.834 Z" /></g><g
           transform="translate(466.8296,163.7725)"
           id="g152"><path
             id="path154"
             style="fill:#ffffff;fill-opacity:1;fill-rule:nonzero;stroke:none"
             d="m 0,0 c -12.47,0.265 -24.937,0.678 -37.399,1.239 v 49.404 c 12.259,-0.553 24.524,-0.962 36.79,-1.227 v -9.909 c -7.279,0.157 -14.557,0.365 -21.833,0.624 v -9.054 c 6.942,-0.247 13.886,-0.447 20.831,-0.601 0,-3.316 0,-6.63 0,-9.945 -6.945,0.155 -13.889,0.355 -20.831,0.602 V 10.582 C -14.963,10.315 -7.482,10.104 0,9.945 Z" /></g><g
           transform="translate(524.4346,201.002)"
           id="g156"><path
             id="path158"
             style="fill:#ffffff;fill-opacity:1;fill-rule:nonzero;stroke:none"
             d="m 0,0 c -6.062,-0.095 -12.124,-0.153 -18.187,-0.178 v -37.39 c -4.977,-0.02 -9.954,-0.016 -14.93,0.011 v 37.391 c -6.063,0.033 -12.126,0.103 -18.188,0.206 V 12.053 C -34.204,11.76 -17.101,11.746 0,12.013 Z" /></g><g
           transform="translate(579.6914,202.8408)"
           id="g160"><path
             id="path162"
             style="fill:#ffffff;fill-opacity:1;fill-rule:nonzero;stroke:none"
             d="m 0,0 c -6.058,-0.309 -12.115,-0.582 -18.175,-0.82 v -37.391 c -4.973,-0.195 -9.948,-0.367 -14.924,-0.516 v 37.391 c -6.06,-0.181 -12.122,-0.325 -18.184,-0.435 v 12.012 c 17.1,0.311 34.197,0.901 51.283,1.772 z" /></g><g
           transform="translate(640.3691,184.3398)"
           id="g164"><path
             id="path166"
             style="fill:#ffffff;fill-opacity:1;fill-rule:nonzero;stroke:none"
             d="m 0,0 c 0,4.231 -3.068,6.062 -9.211,5.543 -2.023,-0.17 -4.047,-0.336 -6.071,-0.498 V -7.609 c 2.024,0.162 4.048,0.328 6.071,0.498 C -3.068,-6.594 0,-4.204 0,0 m -2.427,20.351 c 0,2.375 -0.785,3.885 -2.356,4.533 -1.571,0.648 -4.024,0.828 -7.356,0.554 -1.048,-0.086 -2.095,-0.17 -3.143,-0.254 V 13.35 c 1.071,0.085 2.143,0.171 3.215,0.26 3.403,0.281 5.861,0.885 7.373,1.8 1.511,0.916 2.267,2.564 2.267,4.941 M 14.987,0.814 c 0,-4.252 -1.457,-7.797 -4.37,-10.622 -2.913,-2.826 -6.988,-4.485 -12.222,-4.95 -9.532,-0.848 -19.069,-1.608 -28.611,-2.281 v 49.402 c 7.982,0.564 15.959,1.188 23.933,1.873 3.095,0.266 5.789,0.208 8.086,-0.175 2.296,-0.385 4.146,-1.025 5.55,-1.926 1.403,-0.901 2.449,-2.018 3.139,-3.353 0.69,-1.336 1.035,-2.835 1.035,-4.498 0,-1.805 -0.357,-3.509 -1.071,-5.111 C 9.742,17.571 8.856,16.227 7.798,15.14 6.739,14.052 5.676,13.257 4.604,12.754 7.983,11.736 10.558,10.307 12.33,8.447 14.102,6.59 14.987,4.047 14.987,0.814" /></g><g
           transform="translate(702.1338,176.5225)"
           id="g168"><path
             id="path170"
             style="fill:#ffffff;fill-opacity:1;fill-rule:nonzero;stroke:none"
             d="m 0,0 c -12.394,-1.613 -24.801,-3.078 -37.22,-4.393 v 49.404 c 12.218,1.294 24.423,2.731 36.616,4.314 v -9.909 c -7.235,-0.939 -14.474,-1.827 -21.718,-2.665 v -9.054 c 6.911,0.799 13.818,1.645 20.721,2.536 v -9.945 c -6.903,-0.891 -13.81,-1.736 -20.721,-2.535 V 7.202 C -14.877,8.063 -7.436,8.978 0,9.945 Z" /></g><g
           transform="translate(749.1992,183.3779)"
           id="g172"><path
             id="path174"
             style="fill:#ffffff;fill-opacity:1;fill-rule:nonzero;stroke:none"
             d="m 0,0 c -12.352,-1.991 -24.722,-3.833 -37.107,-5.526 v 49.403 c 12.183,1.665 24.352,3.476 36.504,5.43 v -9.91 c -7.21,-1.16 -14.426,-2.268 -21.648,-3.326 v -9.053 c 6.89,1.008 13.775,2.064 20.655,3.166 v -9.945 c -6.88,-1.101 -13.765,-2.157 -20.655,-3.166 V 6.522 C -14.828,7.609 -7.411,8.751 0,9.945 Z" /></g><g
           transform="translate(793.4082,205.5215)"
           id="g176"><path
             id="path178"
             style="fill:#ffffff;fill-opacity:1;fill-rule:nonzero;stroke:none"
             d="m 0,0 c 0,-3.09 -0.784,-5.913 -2.351,-8.467 -1.565,-2.554 -3.751,-4.694 -6.555,-6.412 -2.805,-1.718 -6.024,-2.905 -9.656,-3.553 -1.015,-0.181 -2.26,-0.336 -3.734,-0.464 -1.475,-0.129 -3.433,-0.11 -5.878,0.064 -2.443,0.175 -4.988,0.621 -7.633,1.346 v 12.119 c 2.48,-1.131 4.918,-2.002 7.315,-2.612 2.395,-0.611 4.962,-0.675 7.701,-0.192 2.523,0.447 4.157,1.163 4.9,2.141 0.743,0.977 1.114,1.834 1.114,2.572 0,1.33 -0.636,2.337 -1.91,3.023 -1.273,0.686 -3.125,1.298 -5.556,1.846 -2.691,0.668 -5.05,1.502 -7.081,2.497 -2.031,0.995 -3.691,2.396 -4.977,4.201 -1.288,1.803 -1.931,4.084 -1.931,6.841 0,2.661 0.648,5.175 1.948,7.544 1.299,2.368 3.283,4.421 5.951,6.162 2.668,1.74 5.925,2.948 9.771,3.634 2.736,0.487 5.264,0.679 7.587,0.57 2.321,-0.109 4.237,-0.352 5.746,-0.735 1.506,-0.384 2.543,-0.71 3.109,-0.983 V 19.558 c -2.003,1.069 -4.235,1.946 -6.697,2.631 -2.464,0.686 -5.099,0.775 -7.906,0.272 -1.839,-0.331 -3.173,-0.923 -3.999,-1.782 -0.826,-0.86 -1.238,-1.812 -1.238,-2.857 0,-0.973 0.412,-1.745 1.238,-2.312 0.826,-0.567 2.301,-1.173 4.424,-1.813 3.774,-1.103 6.791,-2.151 9.053,-3.157 C -4.982,9.534 -3.21,8.224 -1.926,6.602 -0.643,4.979 0,2.779 0,0" /></g></g></g><path
       id="path180"
       style="fill:#545454;fill-opacity:1;fill-rule:nonzero;stroke:none"
       d="M 0,0 H 1000 V 1000 H 0 Z" /><g
       id="g182"><g
         clip-path="url(#clipPath188)"
         id="g184"><g
           transform="translate(593.46,450.3604)"
           id="g190"><path
             id="path192"
             style="fill:#f3bf37;fill-opacity:1;fill-rule:nonzero;stroke:none"
             d="m 0,0 c -6.56,-5.41 -13.13,-10.761 -19.729,-16.07 -0.771,-0.62 -1.541,-1.241 -2.301,-1.861 -0.24,-0.199 -0.48,-0.399 -0.72,-0.58 -35.55,-29.46 -46.93,-62.55 -23.96,-120.929 14.71,-37.39 -12.79,-45.241 -23.61,-34.42 -12.3,12.299 -7.21,45.299 -5.9,59.009 1.97,20.661 -13.77,26.561 -24.59,26.561 -12.42,0 -31.68,-13.34 -35.66,-16.181 l 0.73,0.561 c -3.96,-2.811 -7.91,-5.62 -11.87,-8.401 -25.36,26.701 -49.95,54.42 -73.75,83.161 l -151.12,-120.21 c -11.64,16.509 -21.72,33.929 -30.16,52.089 L -258.51,17.38 c -24.14,31.36 -46.98,63.309 -68.46,95.84 17.09,15.36 34.48,30.54 52.12,45.48 27.23,-40.48 56.49,-80.4 87.08,-118.86 3.75,-4.71 7.52,-9.41 11.32,-14.09 15.7,-16.931 31.06,-34.641 50.48,-47.44 5.81,-3.821 12.07,-7.22 18.93,-8.39 2.38,-0.41 5.14,-0.42 6.81,1.33 1.53,1.59 1.56,4.08 1.19,6.25 -0.65,3.92 -2.25,7.609 -4.02,11.159 -6.62,13.341 -15.33,25.601 -24.33,37.481 -10.38,12.349 -20.58,24.83 -30.58,37.41 -30.8,38.72 -60.2,78.92 -87.48,119.69 20.01,16.46 40.39,32.67 61.11,48.57 27.36,-40.74 56.79,-80.911 87.55,-119.59 C -66.11,73.64 -33.59,35.909 0,0" /></g><g
           transform="translate(502.6875,750.6533)"
           id="g194"><path
             id="path196"
             style="fill:#f3bf37;fill-opacity:1;fill-rule:nonzero;stroke:none"
             d="m 0,0 c 26.651,-39.381 55.159,-78.228 84.972,-115.708 29.725,-37.371 61.158,-73.927 93.604,-108.843 -19.148,-17.333 -38.654,-34.442 -58.514,-51.29 -33.432,35.654 -65.77,73.12 -96.272,111.467 -30.59,38.458 -59.821,78.395 -86.929,118.898 C -42.255,-29.915 -21.213,-14.736 0,0" /></g><g
           transform="translate(664.1318,695.7715)"
           id="g198"><path
             id="path200"
             style="fill:#f3bf37;fill-opacity:1;fill-rule:nonzero;stroke:none"
             d="m 0,0 c 28.595,-35.95 55.421,-72.728 80.487,-110.254 -11.638,-11.286 -23.409,-22.497 -35.291,-33.614 -31.859,34.223 -62.687,70.064 -91.865,106.747 -29.249,36.771 -57.253,74.894 -83.361,113.548 13.506,9.075 27.077,18.023 40.71,26.802 C -58.396,70.363 -28.596,35.95 0,0" /></g><g
           transform="translate(740.9502,255.7998)"
           id="g202"><path
             id="path204"
             style="fill:#ffffff;fill-opacity:1;fill-rule:nonzero;stroke:none"
             d="m 0,0 c -64.36,-64.359 -149.931,-99.8 -240.95,-99.8 -91.02,0 -176.59,35.441 -240.95,99.8 -14.1,14.101 -26.82,29.22 -38.07,45.2 -11.64,16.51 -21.72,33.93 -30.16,52.09 -20.68,44.42 -31.57,93.2 -31.57,143.66 0,91.02 35.44,176.59 99.8,240.95 64.36,64.36 149.93,99.8 240.95,99.8 91.019,0 176.59,-35.44 240.95,-99.8 C 64.359,417.54 99.8,331.97 99.8,240.95 99.8,149.931 64.359,64.36 0,0 m 101.58,385.66 c -18.73,44.27 -45.53,84.02 -79.66,118.16 -34.14,34.13 -73.89,60.94 -118.16,79.66 -45.84,19.39 -94.531,29.22 -144.71,29.22 -50.18,0 -98.87,-9.83 -144.71,-29.22 -44.27,-18.72 -84.02,-45.53 -118.16,-79.66 -34.13,-34.14 -60.94,-73.89 -79.66,-118.16 -19.39,-45.84 -29.22,-94.53 -29.22,-144.71 0,-50.179 9.83,-98.87 29.22,-144.71 2.67,-6.32 5.51,-12.559 8.52,-18.69 8.84,-18.08 19.09,-35.32 30.71,-51.659 12.04,-16.951 25.53,-32.911 40.43,-47.811 34.14,-34.13 73.89,-60.93 118.16,-79.66 45.84,-19.39 94.53,-29.22 144.71,-29.22 50.179,0 98.87,9.83 144.71,29.22 44.27,18.73 84.02,45.53 118.16,79.66 34.13,34.14 60.93,73.89 79.66,118.16 19.39,45.84 29.22,94.531 29.22,144.71 0,50.18 -9.83,98.87 -29.22,144.71" /></g><g
           transform="translate(129.124,235.8848)"
           id="g206"><path
             id="path208"
             style="fill:#cfa23d;fill-opacity:1;fill-rule:nonzero;stroke:none"
             d="m 0,0 c -30.219,19.23 -85.164,21.978 -85.164,21.978 l 32.967,-52.198 -32.967,-38.461 c 0,0 63.186,-10.989 90.659,-24.724 27.472,-13.737 71.428,-24.726 90.658,-24.726 2.747,13.736 8.242,35.714 8.242,35.714 z" /></g><g
           transform="translate(870.876,235.8848)"
           id="g210"><path
             id="path212"
             style="fill:#cfa23d;fill-opacity:1;fill-rule:nonzero;stroke:none"
             d="M 0,0 C 30.22,19.23 85.164,21.978 85.164,21.978 L 52.197,-30.22 85.164,-68.681 c 0,0 -63.186,-10.989 -90.659,-24.724 -27.472,-13.737 -71.428,-24.726 -90.658,-24.726 -2.747,13.736 -8.242,35.714 -8.242,35.714 z" /></g><g
           transform="translate(881.8643,301.9004)"
           id="g214"><path
             id="path216"
             style="fill:#f3bf37;fill-opacity:1;fill-rule:nonzero;stroke:none"
             d="m 0,0 v -135.108 c -122.993,-27.913 -250.986,-42.637 -382.414,-42.637 -132.993,0 -262.47,15.082 -386.809,43.626 V 0.935 c 124.312,-28.517 253.734,-43.599 386.672,-43.599 131.483,0 259.53,14.753 382.551,42.664" /></g><g
           transform="translate(263.6782,181.3574)"
           id="g218"><path
             id="path220"
             style="fill:#ffffff;fill-opacity:1;fill-rule:nonzero;stroke:none"
             d="m 0,0 c -4.945,0.755 -9.888,1.533 -14.829,2.336 v 28.623 c -4.455,-4.801 -8.908,-9.582 -13.358,-14.345 -0.39,0.067 -0.78,0.134 -1.169,0.201 -4.462,6.293 -8.922,12.606 -13.379,18.938 V 7.13 c -4.786,0.867 -9.571,1.757 -14.351,2.669 v 49.403 c 4.462,-0.851 8.928,-1.682 13.397,-2.495 5.022,-7.091 10.047,-14.158 15.076,-21.199 5.053,5.31 10.109,10.646 15.167,16.008 4.48,-0.724 8.962,-1.428 13.446,-2.114 z" /></g><g
           transform="translate(307.5811,193.8955)"
           id="g222"><path
             id="path224"
             style="fill:#ffffff;fill-opacity:1;fill-rule:nonzero;stroke:none"
             d="M 0,0 C -2.409,6.31 -4.817,12.626 -7.225,18.947 -9.657,13.248 -12.087,7.554 -14.518,1.866 -9.681,1.222 -4.841,0.599 0,0 m 22.692,-21.249 c -5.086,0.555 -10.169,1.135 -15.25,1.738 -1.341,3.498 -2.683,6.998 -4.024,10.5 -7.145,0.869 -14.286,1.787 -21.421,2.755 -1.363,-3.153 -2.726,-6.306 -4.089,-9.456 -5.072,0.701 -10.141,1.428 -15.207,2.18 7.256,15.391 14.518,30.834 21.785,46.328 5.477,-0.733 10.957,-1.439 16.44,-2.113 7.25,-17.362 14.506,-34.672 21.766,-51.932" /></g><g
           transform="translate(374.4121,168.4658)"
           id="g226"><path
             id="path228"
             style="fill:#ffffff;fill-opacity:1;fill-rule:nonzero;stroke:none"
             d="m 0,0 c -12.537,1.009 -25.064,2.168 -37.58,3.479 v 49.404 c 4.969,-0.521 9.939,-1.017 14.911,-1.49 V 13.823 C -15.117,13.105 -7.56,12.442 0,11.834 Z" /></g><g
           transform="translate(420.7378,165.4287)"
           id="g230"><path
             id="path232"
             style="fill:#ffffff;fill-opacity:1;fill-rule:nonzero;stroke:none"
             d="m 0,0 c -12.555,0.636 -25.104,1.424 -37.645,2.362 v 49.404 c 4.978,-0.372 9.958,-0.722 14.938,-1.046 V 13.149 C -15.14,12.656 -7.571,12.218 0,11.834 Z" /></g><g
           transform="translate(466.8296,163.7725)"
           id="g234"><path
             id="path236"
             style="fill:#ffffff;fill-opacity:1;fill-rule:nonzero;stroke:none"
             d="m 0,0 c -12.47,0.265 -24.937,0.678 -37.399,1.239 v 49.404 c 12.259,-0.553 24.524,-0.962 36.79,-1.227 v -9.909 c -7.279,0.157 -14.557,0.365 -21.833,0.624 v -9.054 c 6.942,-0.247 13.886,-0.447 20.831,-0.601 0,-3.316 0,-6.63 0,-9.945 -6.945,0.155 -13.889,0.355 -20.831,0.602 V 10.582 C -14.963,10.315 -7.482,10.104 0,9.945 Z" /></g><g
           transform="translate(524.4346,201.002)"
           id="g238"><path
             id="path240"
             style="fill:#ffffff;fill-opacity:1;fill-rule:nonzero;stroke:none"
             d="m 0,0 c -6.062,-0.095 -12.124,-0.153 -18.187,-0.178 v -37.39 c -4.977,-0.02 -9.954,-0.016 -14.93,0.011 v 37.391 c -6.063,0.033 -12.126,0.103 -18.188,0.206 V 12.053 C -34.204,11.76 -17.101,11.746 0,12.013 Z" /></g><g
           transform="translate(579.6914,202.8408)"
           id="g242"><path
             id="path244"
             style="fill:#ffffff;fill-opacity:1;fill-rule:nonzero;stroke:none"
             d="m 0,0 c -6.058,-0.309 -12.115,-0.582 -18.175,-0.82 v -37.391 c -4.973,-0.195 -9.948,-0.367 -14.924,-0.516 v 37.391 c -6.06,-0.181 -12.122,-0.325 -18.184,-0.435 v 12.012 c 17.1,0.311 34.197,0.901 51.283,1.772 z" /></g><g
           transform="translate(640.3691,184.3398)"
           id="g246"><path
             id="path248"
             style="fill:#ffffff;fill-opacity:1;fill-rule:nonzero;stroke:none"
             d="m 0,0 c 0,4.231 -3.068,6.062 -9.211,5.543 -2.023,-0.17 -4.047,-0.336 -6.071,-0.498 V -7.609 c 2.024,0.162 4.048,0.328 6.071,0.498 C -3.068,-6.594 0,-4.204 0,0 m -2.427,20.351 c 0,2.375 -0.785,3.885 -2.356,4.533 -1.571,0.648 -4.024,0.828 -7.356,0.554 -1.048,-0.086 -2.095,-0.17 -3.143,-0.254 V 13.35 c 1.071,0.085 2.143,0.171 3.215,0.26 3.403,0.281 5.861,0.885 7.373,1.8 1.511,0.916 2.267,2.564 2.267,4.941 M 14.987,0.814 c 0,-4.252 -1.457,-7.797 -4.37,-10.622 -2.913,-2.826 -6.988,-4.485 -12.222,-4.95 -9.532,-0.848 -19.069,-1.608 -28.611,-2.281 v 49.402 c 7.982,0.564 15.959,1.188 23.933,1.873 3.095,0.266 5.789,0.208 8.086,-0.175 2.296,-0.385 4.146,-1.025 5.55,-1.926 1.403,-0.901 2.449,-2.018 3.139,-3.353 0.69,-1.336 1.035,-2.835 1.035,-4.498 0,-1.805 -0.357,-3.509 -1.071,-5.111 C 9.742,17.571 8.856,16.227 7.798,15.14 6.739,14.052 5.676,13.257 4.604,12.754 7.983,11.736 10.558,10.307 12.33,8.447 14.102,6.59 14.987,4.047 14.987,0.814" /></g><g
           transform="translate(702.1338,176.5225)"
           id="g250"><path
             id="path252"
             style="fill:#ffffff;fill-opacity:1;fill-rule:nonzero;stroke:none"
             d="m 0,0 c -12.394,-1.613 -24.801,-3.078 -37.22,-4.393 v 49.404 c 12.218,1.294 24.423,2.731 36.616,4.314 v -9.909 c -7.235,-0.939 -14.474,-1.827 -21.718,-2.665 v -9.054 c 6.911,0.799 13.818,1.645 20.721,2.536 v -9.945 c -6.903,-0.891 -13.81,-1.736 -20.721,-2.535 V 7.202 C -14.877,8.063 -7.436,8.978 0,9.945 Z" /></g><g
           transform="translate(749.1992,183.3779)"
           id="g254"><path
             id="path256"
             style="fill:#ffffff;fill-opacity:1;fill-rule:nonzero;stroke:none"
             d="m 0,0 c -12.352,-1.991 -24.722,-3.833 -37.107,-5.526 v 49.403 c 12.183,1.665 24.352,3.476 36.504,5.43 v -9.91 c -7.21,-1.16 -14.426,-2.268 -21.648,-3.326 v -9.053 c 6.89,1.008 13.775,2.064 20.655,3.166 v -9.945 c -6.88,-1.101 -13.765,-2.157 -20.655,-3.166 V 6.522 C -14.828,7.609 -7.411,8.751 0,9.945 Z" /></g><g
           transform="translate(793.4082,205.5215)"
           id="g258"><path
             id="path260"
             style="fill:#ffffff;fill-opacity:1;fill-rule:nonzero;stroke:none"
             d="m 0,0 c 0,-3.09 -0.784,-5.913 -2.351,-8.467 -1.565,-2.554 -3.751,-4.694 -6.555,-6.412 -2.805,-1.718 -6.024,-2.905 -9.656,-3.553 -1.015,-0.181 -2.26,-0.336 -3.734,-0.464 -1.475,-0.129 -3.433,-0.11 -5.878,0.064 -2.443,0.175 -4.988,0.621 -7.633,1.346 v 12.119 c 2.48,-1.131 4.918,-2.002 7.315,-2.612 2.395,-0.611 4.962,-0.675 7.701,-0.192 2.523,0.447 4.157,1.163 4.9,2.141 0.743,0.977 1.114,1.834 1.114,2.572 0,1.33 -0.636,2.337 -1.91,3.023 -1.273,0.686 -3.125,1.298 -5.556,1.846 -2.691,0.668 -5.05,1.502 -7.081,2.497 -2.031,0.995 -3.691,2.396 -4.977,4.201 -1.288,1.803 -1.931,4.084 -1.931,6.841 0,2.661 0.648,5.175 1.948,7.544 1.299,2.368 3.283,4.421 5.951,6.162 2.668,1.74 5.925,2.948 9.771,3.634 2.736,0.487 5.264,0.679 7.587,0.57 2.321,-0.109 4.237,-0.352 5.746,-0.735 1.506,-0.384 2.543,-0.71 3.109,-0.983 V 19.558 c -2.003,1.069 -4.235,1.946 -6.697,2.631 -2.464,0.686 -5.099,0.775 -7.906,0.272 -1.839,-0.331 -3.173,-0.923 -3.999,-1.782 -0.826,-0.86 -1.238,-1.812 -1.238,-2.857 0,-0.973 0.412,-1.745 1.238,-2.312 0.826,-0.567 2.301,-1.173 4.424,-1.813 3.774,-1.103 6.791,-2.151 9.053,-3.157 C -4.982,9.534 -3.21,8.224 -1.926,6.602 -0.643,4.979 0,2.779 0,0" /></g></g></g></g></svg>